<svg xmlns="http://www.w3.org/2000/svg" shape-rendering="geometricPrecision" text-rendering="geometricPrecision" image-rendering="optimizeQuality" fill-rule="evenodd" clip-rule="evenodd" viewBox="0 0 424 511.543"><path fill="#262626" fill-rule="nonzero" d="M86.37 413.439c-11.765 0-11.765-17.89 0-17.89h102.734a129.853 129.853 0 00-.316 8.945c0 3.008.112 5.99.316 8.945H86.37zm49.586-170.786l1.982 22.201c-5.549 2.29-12.509 3.435-20.879 3.435-8.37 0-15.086-.88-20.152-2.643-5.064-1.762-9.051-4.536-11.958-8.325-2.907-3.787-4.933-8.237-6.079-13.346-1.145-5.109-1.718-11.407-1.718-18.895 0-7.489.573-13.81 1.718-18.962 1.146-5.155 3.172-9.625 6.079-13.414 5.637-7.312 15.989-10.968 31.054-10.968 3.347 0 7.289.332 11.825.991 4.538.661 7.907 1.476 10.11 2.446l-3.965 20.218c-5.725-1.234-10.967-1.851-15.725-1.851-4.756 0-8.06.441-9.911 1.321-1.848.882-2.774 2.644-2.774 5.287v34.62a51.722 51.722 0 0010.44 1.058c7.487 0 14.138-1.058 19.953-3.173zm9.91 22.201l3.698-21.804c8.106 2.026 15.395 3.04 21.87 3.04 6.476 0 11.696-.264 15.659-.793v-6.607l-11.893-1.058c-10.746-.968-18.125-3.545-22.133-7.729-4.008-4.184-6.012-10.374-6.012-18.566 0-11.276 2.444-19.028 7.334-23.257 4.888-4.229 13.192-6.344 24.909-6.344 11.717 0 22.287 1.102 31.713 3.304l-3.304 21.143c-8.191-1.322-14.756-1.982-19.689-1.982s-9.117.22-12.554.66v6.476l9.514.925c11.541 1.145 19.514 3.897 23.919 8.258 4.405 4.362 6.607 10.418 6.607 18.17 0 5.549-.749 10.241-2.247 14.073-1.497 3.831-3.281 6.738-5.351 8.722-2.069 1.981-4.999 3.5-8.788 4.558-3.788 1.056-7.113 1.695-9.976 1.916-2.864.221-6.673.33-11.43.33-11.453 0-22.068-1.145-31.846-3.435zm126.59-81.136h27.883l-20.482 82.589h-38.586l-20.482-82.589h27.882l11.233 52.461h1.189l11.363-52.461zm-6.647-159.459v29.103c0 65.658 15.315 69.469 69.082 69.469h22.031l-91.113-98.572zm94.336 115.919h-21.48c-61.025 0-90.202-4.092-90.202-86.277V17.347H56.817c-21.693 0-39.471 17.778-39.471 39.472v264.794h201.857a128.538 128.538 0 00-12.518 17.541H17.346v89.824c0 21.622 17.85 39.47 39.471 39.47h149.048a128.452 128.452 0 0012.01 17.347H56.817C25.626 485.795 0 460.171 0 428.978V56.819C0 25.553 25.549 0 56.817 0h206.336a8.656 8.656 0 016.926 3.454l105.073 113.675c2.191 2.367 2.339 4.663 2.339 7.517v166.861a127.423 127.423 0 00-17.346-7.709v-143.62z"/><path fill="red" d="M316.953 297.447c59.119 0 107.047 47.93 107.047 107.049 0 59.118-47.928 107.047-107.047 107.047-59.12 0-107.049-47.929-107.049-107.047 0-59.119 47.929-107.049 107.049-107.049z"/><path fill="#fff" fill-rule="nonzero" d="M334.137 399.617l17.345 6.065c11.472 4.405 23.271-3.713 14.379-13.819-10.822-12.445-27.259-29.548-39.217-40.938-7.427-7.423-11.734-7.488-19.187-.061-13.237 12.997-26.232 27.437-39.17 40.871-9.254 10.06 2.291 18.552 14.273 13.947l17.165-6.004c-1.257 16.274-2.825 31.833-3.775 48.096 0 2.994 2.503 5.388 5.425 5.613 10.31 0 20.838.242 31.12 0 2.919-.225 5.422-2.622 5.422-5.613l-3.78-48.157z"/></svg>